<?xml version="1.0" encoding="UTF-8" standalone="no"?>
<!DOCTYPE svg PUBLIC "-//W3C//DTD SVG 1.1//EN"
 "http://www.w3.org/Graphics/SVG/1.1/DTD/svg11.dtd">
<!-- Generated by graphviz version 12.1.1 (20240910.0053)
 -->
<!-- Title: INFRA Pages: 1 -->
<svg width="1112pt" height="404pt"
 viewBox="0.00 0.00 1111.81 404.00" xmlns="http://www.w3.org/2000/svg" xmlns:xlink="http://www.w3.org/1999/xlink">
<g id="graph0" class="graph" transform="scale(1 1) rotate(0) translate(4 400)">
<title>INFRA</title>
<polygon fill="white" stroke="none" points="-4,4 -4,-400 1107.81,-400 1107.81,4 -4,4"/>
<!-- azurerm_resource_group.rg -->
<g id="node1" class="node">
<title>azurerm_resource_group.rg</title>
<path fill="#e6e6e6" stroke="black" stroke-width="2" d="M602.4,-72C602.4,-72 436.87,-72 436.87,-72 430.87,-72 424.87,-66 424.87,-60 424.87,-60 424.87,-12 424.87,-12 424.87,-6 430.87,0 436.87,0 436.87,0 602.4,0 602.4,0 608.4,0 614.4,-6 614.4,-12 614.4,-12 614.4,-60 614.4,-60 614.4,-66 608.4,-72 602.4,-72"/>
<text text-anchor="middle" x="519.63" y="-40.2" font-family="Arial" font-size="14.00">azurerm_resource_group.rg</text>
<text text-anchor="middle" x="519.63" y="-23.4" font-family="Arial" font-size="14.00">(azurerm_resource_group)</text>
</g>
<!-- module.vwan -->
<g id="node2" class="node">
<title>module.vwan</title>
<path fill="#e78f81" stroke="black" stroke-width="2" d="M143.27,-180C143.27,-180 12,-180 12,-180 6,-180 0,-174 0,-168 0,-168 0,-120 0,-120 0,-114 6,-108 12,-108 12,-108 143.27,-108 143.27,-108 149.27,-108 155.27,-114 155.27,-120 155.27,-120 155.27,-168 155.27,-168 155.27,-174 149.27,-180 143.27,-180"/>
<text text-anchor="middle" x="77.63" y="-148.2" font-family="Arial" font-size="14.00">module.vwan</text>
<text text-anchor="middle" x="77.63" y="-131.4" font-family="Arial" font-size="14.00">(azurerm_virtual_wan)</text>
</g>
<!-- module.vwan&#45;&gt;azurerm_resource_group.rg -->
<g id="edge1" class="edge">
<title>module.vwan&#45;&gt;azurerm_resource_group.rg</title>
<path fill="none" stroke="black" d="M155.64,-112.33C160.35,-110.79 165.04,-109.33 169.63,-108 250.33,-84.63 343.66,-66.11 413.64,-53.85"/>
<polygon fill="black" stroke="black" points="413.92,-57.36 423.17,-52.2 412.72,-50.46 413.92,-57.36"/>
</g>
<!-- module.vnet1 -->
<g id="node3" class="node">
<title>module.vnet1</title>
<path fill="#e78f81" stroke="black" stroke-width="2" d="M459.94,-180C459.94,-180 305.33,-180 305.33,-180 299.33,-180 293.33,-174 293.33,-168 293.33,-168 293.33,-120 293.33,-120 293.33,-114 299.33,-108 305.33,-108 305.33,-108 459.94,-108 459.94,-108 465.94,-108 471.94,-114 471.94,-120 471.94,-120 471.94,-168 471.94,-168 471.94,-174 465.94,-180 459.94,-180"/>
<text text-anchor="middle" x="382.63" y="-148.2" font-family="Arial" font-size="14.00">module.vnet1</text>
<text text-anchor="middle" x="382.63" y="-131.4" font-family="Arial" font-size="14.00">(azurerm_virtual_network)</text>
</g>
<!-- module.vnet1&#45;&gt;azurerm_resource_group.rg -->
<g id="edge2" class="edge">
<title>module.vnet1&#45;&gt;azurerm_resource_group.rg</title>
<path fill="none" stroke="black" d="M428.25,-107.7C440.15,-98.5 453.1,-88.48 465.4,-78.97"/>
<polygon fill="black" stroke="black" points="467.25,-81.96 473.02,-73.07 462.97,-76.42 467.25,-81.96"/>
</g>
<!-- module.vnet2 -->
<g id="node4" class="node">
<title>module.vnet2</title>
<path fill="#e78f81" stroke="black" stroke-width="2" d="M733.94,-180C733.94,-180 579.33,-180 579.33,-180 573.33,-180 567.33,-174 567.33,-168 567.33,-168 567.33,-120 567.33,-120 567.33,-114 573.33,-108 579.33,-108 579.33,-108 733.94,-108 733.94,-108 739.94,-108 745.94,-114 745.94,-120 745.94,-120 745.94,-168 745.94,-168 745.94,-174 739.94,-180 733.94,-180"/>
<text text-anchor="middle" x="656.63" y="-148.2" font-family="Arial" font-size="14.00">module.vnet2</text>
<text text-anchor="middle" x="656.63" y="-131.4" font-family="Arial" font-size="14.00">(azurerm_virtual_network)</text>
</g>
<!-- module.vnet2&#45;&gt;azurerm_resource_group.rg -->
<g id="edge3" class="edge">
<title>module.vnet2&#45;&gt;azurerm_resource_group.rg</title>
<path fill="none" stroke="black" d="M611.02,-107.7C599.11,-98.5 586.17,-88.48 573.87,-78.97"/>
<polygon fill="black" stroke="black" points="576.3,-76.42 566.25,-73.07 572.02,-81.96 576.3,-76.42"/>
</g>
<!-- module.vnet3 -->
<g id="node5" class="node">
<title>module.vnet3</title>
<path fill="#e78f81" stroke="black" stroke-width="2" d="M1049.94,-180C1049.94,-180 895.33,-180 895.33,-180 889.33,-180 883.33,-174 883.33,-168 883.33,-168 883.33,-120 883.33,-120 883.33,-114 889.33,-108 895.33,-108 895.33,-108 1049.94,-108 1049.94,-108 1055.94,-108 1061.94,-114 1061.94,-120 1061.94,-120 1061.94,-168 1061.94,-168 1061.94,-174 1055.94,-180 1049.94,-180"/>
<text text-anchor="middle" x="972.63" y="-148.2" font-family="Arial" font-size="14.00">module.vnet3</text>
<text text-anchor="middle" x="972.63" y="-131.4" font-family="Arial" font-size="14.00">(azurerm_virtual_network)</text>
</g>
<!-- module.vnet3&#45;&gt;azurerm_resource_group.rg -->
<g id="edge4" class="edge">
<title>module.vnet3&#45;&gt;azurerm_resource_group.rg</title>
<path fill="none" stroke="black" d="M882.93,-112.04C878.11,-110.62 873.33,-109.26 868.63,-108 788.01,-86.32 695.34,-67.76 625.77,-55.06"/>
<polygon fill="black" stroke="black" points="626.76,-51.68 616.29,-53.34 625.51,-58.57 626.76,-51.68"/>
</g>
<!-- azurerm_network_interface.spoke1_nic -->
<g id="node6" class="node">
<title>azurerm_network_interface.spoke1_nic</title>
<path fill="#e78f81" stroke="black" stroke-width="2" d="M459.81,-288C459.81,-288 223.46,-288 223.46,-288 217.46,-288 211.46,-282 211.46,-276 211.46,-276 211.46,-228 211.46,-228 211.46,-222 217.46,-216 223.46,-216 223.46,-216 459.81,-216 459.81,-216 465.81,-216 471.81,-222 471.81,-228 471.81,-228 471.81,-276 471.81,-276 471.81,-282 465.81,-288 459.81,-288"/>
<text text-anchor="middle" x="341.63" y="-256.2" font-family="Arial" font-size="14.00">azurerm_network_interface.spoke1_nic</text>
<text text-anchor="middle" x="341.63" y="-239.4" font-family="Arial" font-size="14.00">(azurerm_network_interface)</text>
</g>
<!-- azurerm_network_interface.spoke1_nic&#45;&gt;azurerm_resource_group.rg -->
<g id="edge5" class="edge">
<title>azurerm_network_interface.spoke1_nic&#45;&gt;azurerm_resource_group.rg</title>
<path fill="none" stroke="black" d="M305.58,-215.62C297.06,-205.04 289.15,-192.82 284.63,-180 274.02,-149.81 265.56,-133.69 284.63,-108 300.8,-86.23 358.94,-68.56 413.35,-56.3"/>
<polygon fill="black" stroke="black" points="414.03,-59.73 423.05,-54.16 412.53,-52.89 414.03,-59.73"/>
</g>
<!-- azurerm_network_interface.spoke1_nic&#45;&gt;module.vnet1 -->
<g id="edge6" class="edge">
<title>azurerm_network_interface.spoke1_nic&#45;&gt;module.vnet1</title>
<path fill="none" stroke="black" d="M355.29,-215.7C358.36,-207.75 361.67,-199.19 364.89,-190.87"/>
<polygon fill="black" stroke="black" points="368.15,-192.14 368.5,-181.55 361.62,-189.62 368.15,-192.14"/>
</g>
<!-- azurerm_linux_virtual_machine.spoke1_vm -->
<g id="node7" class="node">
<title>azurerm_linux_virtual_machine.spoke1_vm</title>
<path fill="#b7e0ff" stroke="black" stroke-width="2" d="M367.25,-396C367.25,-396 106.01,-396 106.01,-396 100.01,-396 94.01,-390 94.01,-384 94.01,-384 94.01,-336 94.01,-336 94.01,-330 100.01,-324 106.01,-324 106.01,-324 367.25,-324 367.25,-324 373.25,-324 379.25,-330 379.25,-336 379.25,-336 379.25,-384 379.25,-384 379.25,-390 373.25,-396 367.25,-396"/>
<text text-anchor="middle" x="236.63" y="-364.2" font-family="Arial" font-size="14.00">azurerm_linux_virtual_machine.spoke1_vm</text>
<text text-anchor="middle" x="236.63" y="-347.4" font-family="Arial" font-size="14.00">(azurerm_linux_virtual_machine)</text>
</g>
<!-- azurerm_linux_virtual_machine.spoke1_vm&#45;&gt;azurerm_resource_group.rg -->
<g id="edge7" class="edge">
<title>azurerm_linux_virtual_machine.spoke1_vm&#45;&gt;azurerm_resource_group.rg</title>
<path fill="none" stroke="black" d="M215.9,-323.65C210.48,-312.61 205.39,-300.13 202.63,-288 195.55,-256.79 193.86,-246.77 202.63,-216 218.12,-161.68 224.53,-142.01 269.63,-108 311.08,-76.75 365.76,-59.25 413.41,-49.45"/>
<polygon fill="black" stroke="black" points="413.78,-52.94 422.92,-47.59 412.43,-46.07 413.78,-52.94"/>
</g>
<!-- azurerm_linux_virtual_machine.spoke1_vm&#45;&gt;azurerm_network_interface.spoke1_nic -->
<g id="edge8" class="edge">
<title>azurerm_linux_virtual_machine.spoke1_vm&#45;&gt;azurerm_network_interface.spoke1_nic</title>
<path fill="none" stroke="black" d="M271.6,-323.7C280.36,-314.85 289.87,-305.26 298.96,-296.08"/>
<polygon fill="black" stroke="black" points="301.21,-298.79 305.76,-289.22 296.23,-293.86 301.21,-298.79"/>
</g>
<!-- azurerm_network_interface.spoke2_nic -->
<g id="node8" class="node">
<title>azurerm_network_interface.spoke2_nic</title>
<path fill="#e78f81" stroke="black" stroke-width="2" d="M775.81,-288C775.81,-288 539.46,-288 539.46,-288 533.46,-288 527.46,-282 527.46,-276 527.46,-276 527.46,-228 527.46,-228 527.46,-222 533.46,-216 539.46,-216 539.46,-216 775.81,-216 775.81,-216 781.81,-216 787.81,-222 787.81,-228 787.81,-228 787.81,-276 787.81,-276 787.81,-282 781.81,-288 775.81,-288"/>
<text text-anchor="middle" x="657.63" y="-256.2" font-family="Arial" font-size="14.00">azurerm_network_interface.spoke2_nic</text>
<text text-anchor="middle" x="657.63" y="-239.4" font-family="Arial" font-size="14.00">(azurerm_network_interface)</text>
</g>
<!-- azurerm_network_interface.spoke2_nic&#45;&gt;azurerm_resource_group.rg -->
<g id="edge9" class="edge">
<title>azurerm_network_interface.spoke2_nic&#45;&gt;azurerm_resource_group.rg</title>
<path fill="none" stroke="black" d="M594.52,-215.6C581.08,-205.58 568.11,-193.63 558.63,-180 538.86,-151.55 529.1,-113.48 524.29,-83.77"/>
<polygon fill="black" stroke="black" points="527.76,-83.3 522.84,-73.92 520.83,-84.32 527.76,-83.3"/>
</g>
<!-- azurerm_network_interface.spoke2_nic&#45;&gt;module.vnet2 -->
<g id="edge10" class="edge">
<title>azurerm_network_interface.spoke2_nic&#45;&gt;module.vnet2</title>
<path fill="none" stroke="black" d="M657.3,-215.7C657.23,-207.93 657.15,-199.57 657.07,-191.43"/>
<polygon fill="black" stroke="black" points="660.57,-191.62 656.98,-181.66 653.57,-191.69 660.57,-191.62"/>
</g>
<!-- azurerm_linux_virtual_machine.spoke2_vm -->
<g id="node9" class="node">
<title>azurerm_linux_virtual_machine.spoke2_vm</title>
<path fill="#b7e0ff" stroke="black" stroke-width="2" d="M676.25,-396C676.25,-396 415.01,-396 415.01,-396 409.01,-396 403.01,-390 403.01,-384 403.01,-384 403.01,-336 403.01,-336 403.01,-330 409.01,-324 415.01,-324 415.01,-324 676.25,-324 676.25,-324 682.25,-324 688.25,-330 688.25,-336 688.25,-336 688.25,-384 688.25,-384 688.25,-390 682.25,-396 676.25,-396"/>
<text text-anchor="middle" x="545.63" y="-364.2" font-family="Arial" font-size="14.00">azurerm_linux_virtual_machine.spoke2_vm</text>
<text text-anchor="middle" x="545.63" y="-347.4" font-family="Arial" font-size="14.00">(azurerm_linux_virtual_machine)</text>
</g>
<!-- azurerm_linux_virtual_machine.spoke2_vm&#45;&gt;azurerm_resource_group.rg -->
<g id="edge11" class="edge">
<title>azurerm_linux_virtual_machine.spoke2_vm&#45;&gt;azurerm_resource_group.rg</title>
<path fill="none" stroke="black" d="M529.29,-323.61C524.93,-312.46 520.83,-299.93 518.63,-288 505.7,-217.62 509.77,-134.26 514.35,-83.52"/>
<polygon fill="black" stroke="black" points="517.82,-84.08 515.28,-73.79 510.85,-83.41 517.82,-84.08"/>
</g>
<!-- azurerm_linux_virtual_machine.spoke2_vm&#45;&gt;azurerm_network_interface.spoke2_nic -->
<g id="edge12" class="edge">
<title>azurerm_linux_virtual_machine.spoke2_vm&#45;&gt;azurerm_network_interface.spoke2_nic</title>
<path fill="none" stroke="black" d="M582.93,-323.7C592.37,-314.76 602.62,-305.06 612.41,-295.8"/>
<polygon fill="black" stroke="black" points="614.55,-298.6 619.4,-289.18 609.73,-293.51 614.55,-298.6"/>
</g>
<!-- azurerm_network_interface.spoke3_nic -->
<g id="node10" class="node">
<title>azurerm_network_interface.spoke3_nic</title>
<path fill="#e78f81" stroke="black" stroke-width="2" d="M1091.81,-288C1091.81,-288 855.46,-288 855.46,-288 849.46,-288 843.46,-282 843.46,-276 843.46,-276 843.46,-228 843.46,-228 843.46,-222 849.46,-216 855.46,-216 855.46,-216 1091.81,-216 1091.81,-216 1097.81,-216 1103.81,-222 1103.81,-228 1103.81,-228 1103.81,-276 1103.81,-276 1103.81,-282 1097.81,-288 1091.81,-288"/>
<text text-anchor="middle" x="973.63" y="-256.2" font-family="Arial" font-size="14.00">azurerm_network_interface.spoke3_nic</text>
<text text-anchor="middle" x="973.63" y="-239.4" font-family="Arial" font-size="14.00">(azurerm_network_interface)</text>
</g>
<!-- azurerm_network_interface.spoke3_nic&#45;&gt;azurerm_resource_group.rg -->
<g id="edge13" class="edge">
<title>azurerm_network_interface.spoke3_nic&#45;&gt;azurerm_resource_group.rg</title>
<path fill="none" stroke="black" d="M916.34,-215.65C901.81,-205.2 886.86,-193.03 874.63,-180 848.81,-152.48 860.38,-129.89 829.63,-108 770.44,-65.86 690.19,-48.28 626.17,-41.15"/>
<polygon fill="black" stroke="black" points="626.63,-37.68 616.32,-40.13 625.91,-44.64 626.63,-37.68"/>
</g>
<!-- azurerm_network_interface.spoke3_nic&#45;&gt;module.vnet3 -->
<g id="edge14" class="edge">
<title>azurerm_network_interface.spoke3_nic&#45;&gt;module.vnet3</title>
<path fill="none" stroke="black" d="M973.3,-215.7C973.23,-207.93 973.15,-199.57 973.07,-191.43"/>
<polygon fill="black" stroke="black" points="976.57,-191.62 972.98,-181.66 969.57,-191.69 976.57,-191.62"/>
</g>
<!-- azurerm_linux_virtual_machine.spoke3_vm -->
<g id="node11" class="node">
<title>azurerm_linux_virtual_machine.spoke3_vm</title>
<path fill="#b7e0ff" stroke="black" stroke-width="2" d="M1025.25,-396C1025.25,-396 764.01,-396 764.01,-396 758.01,-396 752.01,-390 752.01,-384 752.01,-384 752.01,-336 752.01,-336 752.01,-330 758.01,-324 764.01,-324 764.01,-324 1025.25,-324 1025.25,-324 1031.25,-324 1037.25,-330 1037.25,-336 1037.25,-336 1037.25,-384 1037.25,-384 1037.25,-390 1031.25,-396 1025.25,-396"/>
<text text-anchor="middle" x="894.63" y="-364.2" font-family="Arial" font-size="14.00">azurerm_linux_virtual_machine.spoke3_vm</text>
<text text-anchor="middle" x="894.63" y="-347.4" font-family="Arial" font-size="14.00">(azurerm_linux_virtual_machine)</text>
</g>
<!-- azurerm_linux_virtual_machine.spoke3_vm&#45;&gt;azurerm_resource_group.rg -->
<g id="edge15" class="edge">
<title>azurerm_linux_virtual_machine.spoke3_vm&#45;&gt;azurerm_resource_group.rg</title>
<path fill="none" stroke="black" d="M861.4,-323.68C852.05,-312.74 842.35,-300.31 834.63,-288 788.14,-213.82 820.28,-165.92 754.63,-108 719.06,-76.61 669.99,-59.09 625.89,-49.32"/>
<polygon fill="black" stroke="black" points="626.78,-45.93 616.27,-47.31 625.35,-52.78 626.78,-45.93"/>
</g>
<!-- azurerm_linux_virtual_machine.spoke3_vm&#45;&gt;azurerm_network_interface.spoke3_nic -->
<g id="edge16" class="edge">
<title>azurerm_linux_virtual_machine.spoke3_vm&#45;&gt;azurerm_network_interface.spoke3_nic</title>
<path fill="none" stroke="black" d="M920.94,-323.7C927.27,-315.21 934.11,-306.03 940.7,-297.19"/>
<polygon fill="black" stroke="black" points="943.37,-299.47 946.54,-289.36 937.76,-295.28 943.37,-299.47"/>
</g>
</g>
</svg>
